<svg width="249" height="108" viewBox="0 0 249 108" fill="none" xmlns="http://www.w3.org/2000/svg">
<path d="M55.0996 64.3572V5.84082H50.7717V32.9255H13.4843V5.84082H9.15625V64.3572H13.4843V36.938H50.7717V64.3572H55.0996Z" fill="black"/>
<path d="M85.6163 36.937L65.5575 60.1764L66.6395 62.6007H69.8024C72.4103 62.6007 74.824 62.8792 77.0435 63.4365C79.2629 63.9938 81.1772 64.8298 82.7863 65.9444C84.3955 67.0032 85.644 68.3408 86.5318 69.957C87.475 71.5174 87.9466 73.3287 87.9466 75.3907C87.9466 77.3412 87.5583 79.1245 86.7814 80.7407C86.0047 82.3011 84.9503 83.6665 83.6187 84.8368C82.3424 85.9514 80.8165 86.8431 79.041 87.5118C77.3208 88.125 75.4898 88.4314 73.5477 88.4314C69.7192 88.4314 66.3067 87.6234 63.3104 86.0072C60.3695 84.391 57.7339 82.0782 55.4034 79.0688L52.0742 81.8274C54.4602 84.9482 57.4287 87.484 60.9798 89.4345C64.531 91.3851 68.6927 92.3604 73.4645 92.3604C75.9615 92.3604 78.3473 91.9702 80.6224 91.1901C82.9529 90.3541 84.9782 89.1838 86.6982 87.6791C88.4738 86.1744 89.861 84.3631 90.8598 82.2454C91.914 80.1277 92.4411 77.787 92.4411 75.2234C92.4411 72.5484 91.8863 70.2078 90.7765 68.2015C89.6668 66.1952 88.1687 64.5232 86.2821 63.1858C84.3955 61.7925 82.2037 60.7337 79.7068 60.0092C77.2099 59.229 74.5743 58.7552 71.8 58.5881L91.5256 35.9338V32.8408H55.0705V36.937H85.6163Z" fill="black"/>
<path d="M118.499 50.5001H119.214V43.4199H129.277V50.5001H129.992V35.7934H129.277V42.7686H119.214V35.7934H118.499V50.5001ZM141.65 50.7522C144.213 50.7522 146.419 49.0504 146.419 46.6133C146.419 46.5923 146.419 46.5713 146.419 46.5713C146.419 43.8191 144.087 42.5375 140.788 42.4744L146.188 36.2976V35.7934H137.111V36.4657H145.221L139.759 42.7055L139.969 43.1257H140.578C143.582 43.1257 145.704 44.1972 145.704 46.5923V46.6343C145.704 48.6723 143.856 50.1009 141.671 50.1009C139.633 50.1009 137.994 49.1345 136.88 47.6638L136.334 48.126C137.49 49.6597 139.317 50.7522 141.65 50.7522ZM153.297 50.5001H153.991V35.1631H153.297V50.5001ZM161.732 50.5001H162.425V35.1631H161.732V50.5001ZM173.422 50.6892C174.011 50.6892 174.557 50.5841 175.082 50.332V49.6807C174.536 49.9328 174.011 50.0589 173.485 50.0589C172.099 50.0589 171.279 49.2815 171.279 47.7268V40.5205H175.124V39.9113H171.279V36.3606H170.607V39.9113H168.989V40.5205H170.607V47.7899C170.607 49.7017 171.721 50.6892 173.422 50.6892ZM181.675 50.5001H182.347V45.4788C182.347 42.8736 184.175 40.3945 186.738 40.3945C186.759 40.3945 186.822 40.3945 186.843 40.3945V39.7012C184.595 39.6381 182.977 41.3399 182.347 43.1467V39.9113H181.675V50.5001ZM197.031 50.7522C200.288 50.7522 202.515 48.168 202.515 45.2057V45.1637C202.515 42.2013 200.288 39.6592 197.052 39.6592C193.796 39.6592 191.548 42.2433 191.548 45.2057V45.2477C191.548 48.2101 193.796 50.7522 197.031 50.7522ZM197.052 50.1219C194.3 50.1219 192.283 47.8949 192.283 45.2267V45.1847C192.283 42.5165 194.216 40.2894 197.01 40.2894C199.763 40.2894 201.8 42.5165 201.8 45.1847V45.2267C201.8 47.8949 199.847 50.1219 197.052 50.1219ZM209.232 50.5001H209.905V44.5334C209.905 42.1173 211.67 40.2894 213.897 40.2894C216.355 40.2894 217.678 41.9492 217.678 44.4073V50.5001H218.351V44.3023C218.351 41.55 216.775 39.6592 213.981 39.6592C211.712 39.6592 210.388 41.1718 209.905 42.4324V39.9113H209.232V50.5001ZM225.648 36.9909H226.552V35.7094H225.648V36.9909ZM225.753 50.5001H226.447V39.9113H225.753V50.5001ZM234.062 50.5001H234.734V47.5588L237.339 45.0586L242.087 50.5001H242.928L237.801 44.5964L242.675 39.9113H241.772L234.734 46.7604V35.1631H234.062V50.5001Z" fill="black"/>
<path d="M126.69 65.5122C126.69 64.4757 126.501 63.5093 126.123 62.6129C125.744 61.7165 125.205 60.9391 124.505 60.2808C123.819 59.6225 122.992 59.1113 122.026 58.7471C121.073 58.369 120.023 58.1799 118.874 58.1799H113.391V72.8866H118.874C120.023 72.8866 121.073 72.6975 122.026 72.3193C122.992 71.9411 123.819 71.4229 124.505 70.7646C125.205 70.1063 125.744 69.329 126.123 68.4325C126.501 67.5221 126.69 66.5487 126.69 65.5122ZM123.98 65.5542C123.98 66.2826 123.854 66.9549 123.602 67.5711C123.363 68.1734 123.02 68.6987 122.572 69.1469C122.138 69.5811 121.606 69.9242 120.975 70.1763C120.345 70.4144 119.645 70.5335 118.874 70.5335H115.975V60.5329H118.874C119.645 60.5329 120.345 60.659 120.975 60.9111C121.606 61.1632 122.138 61.5134 122.572 61.9616C123.02 62.4098 123.363 62.942 123.602 63.5583C123.854 64.1606 123.98 64.8259 123.98 65.5542ZM135.035 68.2435H143.187C143.201 68.1174 143.208 67.9983 143.208 67.8863C143.222 67.7742 143.229 67.6622 143.229 67.5501C143.229 66.7518 143.117 65.9884 142.893 65.2601C142.669 64.5318 142.333 63.8945 141.885 63.3482C141.45 62.802 140.897 62.3678 140.225 62.0456C139.567 61.7235 138.796 61.5624 137.914 61.5624C137.115 61.5624 136.387 61.7165 135.729 62.0246C135.071 62.3328 134.496 62.753 134.006 63.2852C133.53 63.8034 133.159 64.4127 132.893 65.113C132.626 65.8133 132.493 66.5627 132.493 67.3611C132.493 68.2294 132.64 69.0208 132.935 69.7351C133.229 70.4355 133.628 71.0377 134.132 71.542C134.65 72.0462 135.253 72.4384 135.939 72.7185C136.639 72.9986 137.389 73.1387 138.187 73.1387C139.209 73.1387 140.085 72.9496 140.813 72.5714C141.555 72.1933 142.193 71.689 142.725 71.0587L141.233 69.7351C140.785 70.1693 140.33 70.4985 139.868 70.7226C139.405 70.9467 138.859 71.0587 138.229 71.0587C137.403 71.0587 136.702 70.8206 136.128 70.3444C135.554 69.8542 135.19 69.1539 135.035 68.2435ZM135.014 66.5627C135.127 65.6943 135.435 64.994 135.939 64.4617C136.457 63.9155 137.108 63.6424 137.893 63.6424C138.313 63.6424 138.684 63.7194 139.006 63.8735C139.342 64.0275 139.63 64.2376 139.868 64.5038C140.106 64.7559 140.295 65.064 140.435 65.4282C140.575 65.7783 140.666 66.1565 140.708 66.5627H135.014ZM153.485 69.9452L150.501 61.7935H147.77L152.329 72.9706H154.619L159.157 61.7935H156.489L153.485 69.9452ZM166.184 68.2435H174.336C174.35 68.1174 174.357 67.9983 174.357 67.8863C174.371 67.7742 174.378 67.6622 174.378 67.5501C174.378 66.7518 174.266 65.9884 174.041 65.2601C173.817 64.5318 173.481 63.8945 173.033 63.3482C172.599 62.802 172.046 62.3678 171.373 62.0456C170.715 61.7235 169.945 61.5624 169.062 61.5624C168.264 61.5624 167.535 61.7165 166.877 62.0246C166.219 62.3328 165.645 62.753 165.154 63.2852C164.678 63.8034 164.307 64.4127 164.041 65.113C163.775 65.8133 163.642 66.5627 163.642 67.3611C163.642 68.2294 163.789 69.0208 164.083 69.7351C164.377 70.4355 164.776 71.0377 165.28 71.542C165.799 72.0462 166.401 72.4384 167.087 72.7185C167.788 72.9986 168.537 73.1387 169.335 73.1387C170.358 73.1387 171.233 72.9496 171.961 72.5714C172.704 72.1933 173.341 71.689 173.873 71.0587L172.382 69.7351C171.933 70.1693 171.478 70.4985 171.016 70.7226C170.554 70.9467 170.008 71.0587 169.377 71.0587C168.551 71.0587 167.851 70.8206 167.276 70.3444C166.702 69.8542 166.338 69.1539 166.184 68.2435ZM166.163 66.5627C166.275 65.6943 166.583 64.994 167.087 64.4617C167.605 63.9155 168.257 63.6424 169.041 63.6424C169.461 63.6424 169.833 63.7194 170.155 63.8735C170.491 64.0275 170.778 64.2376 171.016 64.5038C171.254 64.7559 171.443 65.064 171.583 65.4282C171.723 65.7783 171.814 66.1565 171.856 66.5627H166.163ZM183.191 72.8866V57.5496H180.649V72.8866H183.191ZM201.304 67.34C201.304 66.5417 201.157 65.7923 200.863 65.092C200.569 64.3917 200.156 63.7824 199.624 63.2642C199.105 62.7319 198.482 62.3188 197.754 62.0246C197.04 61.7165 196.255 61.5624 195.401 61.5624C194.546 61.5624 193.755 61.7165 193.027 62.0246C192.312 62.3328 191.689 62.753 191.157 63.2852C190.639 63.8034 190.225 64.4197 189.917 65.134C189.623 65.8344 189.476 66.5837 189.476 67.3821C189.476 68.1804 189.623 68.9298 189.917 69.6301C190.211 70.3164 190.618 70.9257 191.136 71.4579C191.668 71.9762 192.291 72.3893 193.006 72.6975C193.734 72.9916 194.518 73.1387 195.359 73.1387C196.213 73.1387 197.005 72.9846 197.733 72.6765C198.461 72.3683 199.084 71.9551 199.603 71.4369C200.135 70.9047 200.548 70.2884 200.842 69.5881C201.15 68.8878 201.304 68.1384 201.304 67.34ZM198.762 67.3821C198.762 67.8723 198.685 68.3345 198.531 68.7687C198.377 69.1889 198.153 69.5601 197.859 69.8822C197.565 70.2044 197.208 70.4635 196.787 70.6596C196.381 70.8416 195.919 70.9327 195.401 70.9327C194.911 70.9327 194.455 70.8416 194.035 70.6596C193.629 70.4635 193.272 70.2044 192.964 69.8822C192.67 69.5601 192.438 69.1819 192.27 68.7477C192.102 68.2995 192.018 67.8303 192.018 67.34C192.018 66.8498 192.095 66.3946 192.249 65.9744C192.403 65.5402 192.628 65.1621 192.922 64.8399C193.216 64.5178 193.566 64.2656 193.972 64.0836C194.392 63.8875 194.855 63.7894 195.359 63.7894C195.863 63.7894 196.318 63.8875 196.724 64.0836C197.145 64.2656 197.502 64.5248 197.796 64.8609C198.104 65.1831 198.342 65.5612 198.51 65.9954C198.678 66.4296 198.762 66.8918 198.762 67.3821ZM218.936 67.34C218.936 66.4156 218.789 65.5962 218.495 64.8819C218.201 64.1676 217.809 63.5653 217.319 63.0751C216.842 62.5709 216.296 62.1927 215.68 61.9406C215.064 61.6885 214.426 61.5624 213.768 61.5624C212.872 61.5624 212.122 61.7655 211.52 62.1717C210.918 62.5639 210.413 63.0541 210.007 63.6424V61.7935H207.465V76.2481H210.007V71.1638C210.399 71.682 210.897 72.1372 211.499 72.5294C212.101 72.9216 212.858 73.1177 213.768 73.1177C214.426 73.1177 215.064 72.9916 215.68 72.7395C216.31 72.4874 216.863 72.1162 217.34 71.626C217.83 71.1218 218.215 70.5125 218.495 69.7982C218.789 69.0838 218.936 68.2645 218.936 67.34ZM216.352 67.34C216.352 67.8863 216.268 68.3835 216.1 68.8317C215.932 69.2659 215.701 69.6371 215.407 69.9452C215.127 70.2534 214.79 70.4915 214.398 70.6596C214.02 70.8276 213.614 70.9117 213.18 70.9117C212.745 70.9117 212.332 70.8276 211.94 70.6596C211.548 70.4915 211.205 70.2534 210.911 69.9452C210.616 69.6231 210.378 69.2449 210.196 68.8107C210.028 68.3765 209.944 67.8863 209.944 67.34C209.944 66.7938 210.028 66.3036 210.196 65.8694C210.378 65.4352 210.616 65.064 210.911 64.7559C211.205 64.4337 211.548 64.1886 211.94 64.0205C212.332 63.8525 212.745 63.7684 213.18 63.7684C213.614 63.7684 214.02 63.8525 214.398 64.0205C214.79 64.1886 215.127 64.4267 215.407 64.7349C215.701 65.043 215.932 65.4212 216.1 65.8694C216.268 66.3036 216.352 66.7938 216.352 67.34ZM227.044 68.2435H235.196C235.21 68.1174 235.217 67.9983 235.217 67.8863C235.231 67.7742 235.238 67.6622 235.238 67.5501C235.238 66.7518 235.126 65.9884 234.902 65.2601C234.678 64.5318 234.342 63.8945 233.893 63.3482C233.459 62.802 232.906 62.3678 232.234 62.0456C231.575 61.7235 230.805 61.5624 229.923 61.5624C229.124 61.5624 228.396 61.7165 227.738 62.0246C227.079 62.3328 226.505 62.753 226.015 63.2852C225.539 63.8034 225.167 64.4127 224.901 65.113C224.635 65.8133 224.502 66.5627 224.502 67.3611C224.502 68.2294 224.649 69.0208 224.943 69.7351C225.238 70.4355 225.637 71.0377 226.141 71.542C226.659 72.0462 227.261 72.4384 227.948 72.7185C228.648 72.9986 229.397 73.1387 230.196 73.1387C231.218 73.1387 232.094 72.9496 232.822 72.5714C233.564 72.1933 234.202 71.689 234.734 71.0587L233.242 69.7351C232.794 70.1693 232.339 70.4985 231.877 70.7226C231.414 70.9467 230.868 71.0587 230.238 71.0587C229.411 71.0587 228.711 70.8206 228.137 70.3444C227.563 69.8542 227.198 69.1539 227.044 68.2435ZM227.023 66.5627C227.135 65.6943 227.444 64.994 227.948 64.4617C228.466 63.9155 229.117 63.6424 229.902 63.6424C230.322 63.6424 230.693 63.7194 231.015 63.8735C231.351 64.0275 231.638 64.2376 231.877 64.5038C232.115 64.7559 232.304 65.064 232.444 65.4282C232.584 65.7783 232.675 66.1565 232.717 66.5627H227.023ZM243.905 68.6636C243.905 67.9353 243.996 67.298 244.178 66.7518C244.36 66.1915 244.619 65.7293 244.955 65.3651C245.291 65.001 245.691 64.7279 246.153 64.5458C246.615 64.3637 247.126 64.2726 247.687 64.2726H247.834V61.5834C246.853 61.5414 246.041 61.7725 245.397 62.2767C244.752 62.781 244.255 63.4533 243.905 64.2937V61.7935H241.363V72.8866H243.905V68.6636Z" fill="black"/>
</svg>
