<svg width="77" height="84" viewBox="0 0 77 84" fill="none" xmlns="http://www.w3.org/2000/svg">
<path d="M51.8269 21.2643C39.2546 45.1434 26.7489 49.1353 0 48.6041C31.6105 69.7017 60.5146 46.6856 68.1154 27.3398L77 30.3776L69.5962 0L42.9423 18.2265L51.8269 21.2643Z" fill="#46AEB1"/>
<rect x="10" y="3" width="7" height="57" fill="#448AC3"/>
<rect x="59" y="3" width="7" height="57" fill="#448AC3"/>
<line x1="17" y1="13.5" x2="59" y2="13.5" stroke="#448AC3"/>
<line x1="17" y1="22.5" x2="59" y2="22.5" stroke="#448AC3"/>
<line x1="17" y1="31.5" x2="59" y2="31.5" stroke="#448AC3"/>
<line x1="17" y1="40.5" x2="59" y2="40.5" stroke="#448AC3"/>
<line x1="17" y1="49.5" x2="59" y2="49.5" stroke="#448AC3"/>
<circle cx="21.5" cy="49.5" r="3.5" fill="#935492"/>
<circle cx="29.75" cy="49.5" r="3.5" fill="#935492"/>
<circle cx="38" cy="49.5" r="3.5" fill="#935492"/>
<circle cx="46.25" cy="49.5" r="3.5" fill="#935492"/>
<circle cx="54.5" cy="49.5" r="3.5" fill="#935492"/>
<circle cx="29.75" cy="40.5" r="3.5" fill="#935492"/>
<circle cx="38" cy="40.5" r="3.5" fill="#935492"/>
<circle cx="46.25" cy="40.5" r="3.5" fill="#935492"/>
<circle cx="54.5" cy="40.5" r="3.5" fill="#935492"/>
<circle cx="38" cy="31.5" r="3.5" fill="#935492"/>
<circle cx="46.25" cy="31.5" r="3.5" fill="#935492"/>
<circle cx="54.5" cy="31.5" r="3.5" fill="#935492"/>
<circle cx="46.25" cy="22.5" r="3.5" fill="#935492"/>
<circle cx="54.5" cy="22.5" r="3.5" fill="#935492"/>
<circle cx="54.5" cy="13.5" r="3.5" fill="#935492"/>
<path d="M17.7637 66.7012H18.2266L21.5312 74.3301C21.7305 74.791 21.9512 75.1133 22.1934 75.2969C22.3887 75.4414 22.6562 75.5312 22.9961 75.5664V76H19.7148V75.5664C20.4609 75.5039 20.834 75.3535 20.834 75.1152C20.834 75.0371 20.7812 74.8789 20.6758 74.6406L19.8145 72.6953H15.9121L15.1328 74.5C15.0273 74.7422 14.9746 74.9277 14.9746 75.0566C14.9746 75.3574 15.3242 75.5273 16.0234 75.5664V76H13.1055V75.5664C13.7148 75.4805 14.1387 75.1562 14.377 74.5938L17.7637 66.7012ZM17.8691 67.9492L16.1172 72.0977H19.6328L17.8691 67.9492ZM23.1133 66.8828H26.5352V67.3164C25.6602 67.3789 25.2227 67.541 25.2227 67.8027C25.2227 67.9395 25.2637 68.1016 25.3457 68.2891L27.9004 74.5996L30.1562 68.3242C30.2305 68.1172 30.2676 67.9609 30.2676 67.8555C30.2676 67.6602 30.1445 67.5234 29.8984 67.4453C29.7344 67.3906 29.4648 67.3477 29.0898 67.3164V66.8828H32.1484V67.3164C31.5 67.4219 31.0488 67.8262 30.7949 68.5293L28 76.1816H27.5547L24.373 68.2363C24.248 67.9199 24.0781 67.6973 23.8633 67.5684C23.6523 67.4355 23.4023 67.3516 23.1133 67.3164V66.8828ZM36.959 66.7012H37.4219L40.7266 74.3301C40.9258 74.791 41.1465 75.1133 41.3887 75.2969C41.584 75.4414 41.8516 75.5312 42.1914 75.5664V76H38.9102V75.5664C39.6562 75.5039 40.0293 75.3535 40.0293 75.1152C40.0293 75.0371 39.9766 74.8789 39.8711 74.6406L39.0098 72.6953H35.1074L34.3281 74.5C34.2227 74.7422 34.1699 74.9277 34.1699 75.0566C34.1699 75.3574 34.5195 75.5273 35.2188 75.5664V76H32.3008V75.5664C32.9102 75.4805 33.334 75.1562 33.5723 74.5938L36.959 66.7012ZM37.0645 67.9492L35.3125 72.0977H38.8281L37.0645 67.9492ZM50.793 69.666H50.3477C49.9531 68.0879 48.9453 67.2988 47.3242 67.2988C46.207 67.2988 45.3438 67.7656 44.7344 68.6992C44.2539 69.4414 44.0137 70.3691 44.0137 71.4824C44.0137 72.4238 44.2363 73.2344 44.6816 73.9141C45.0566 74.4844 45.5469 74.9043 46.1523 75.1738C46.5586 75.3574 46.9922 75.4492 47.4531 75.4492C49.1172 75.4492 50.2305 74.5645 50.793 72.7949L51.2734 73C50.9453 74.1055 50.4824 74.9082 49.8848 75.4082C49.2285 75.9551 48.373 76.2285 47.3184 76.2285C46.0254 76.2285 44.9746 75.7695 44.166 74.8516C43.3926 73.9766 43.0059 72.8574 43.0059 71.4941C43.0059 70.3652 43.2734 69.3828 43.8086 68.5469C44.2852 67.8047 44.916 67.2734 45.7012 66.9531C46.1973 66.75 46.7227 66.6484 47.2773 66.6484C48.0898 66.6484 48.8789 66.8633 49.6445 67.293C49.8281 67.3945 49.9707 67.4453 50.0723 67.4453C50.209 67.4453 50.3047 67.2559 50.3594 66.877H50.793V69.666ZM57.0508 66.6484C58.4336 66.6484 59.5273 67.2031 60.332 68.3125C60.9688 69.1875 61.2871 70.2402 61.2871 71.4707C61.2871 72.6191 61.0293 73.5996 60.5137 74.4121C59.7402 75.623 58.582 76.2285 57.0391 76.2285C55.6094 76.2285 54.5059 75.7012 53.7285 74.6465C53.1035 73.8027 52.791 72.7422 52.791 71.4648C52.791 70.1328 53.1562 69.0215 53.8867 68.1309C54.6914 67.1426 55.7461 66.6484 57.0508 66.6484ZM57.0273 67.2988C55.9609 67.2988 55.1309 67.7422 54.5371 68.6289C54.0449 69.3594 53.7988 70.2988 53.7988 71.4473C53.7988 72.3965 53.9766 73.2109 54.332 73.8906C54.5977 74.3984 54.9453 74.7969 55.375 75.0859C55.8633 75.4141 56.418 75.5781 57.0391 75.5781C58.043 75.5781 58.8438 75.1758 59.4414 74.3711C60 73.625 60.2793 72.6484 60.2793 71.4414C60.2793 70.1992 59.9922 69.2051 59.418 68.459C58.8242 67.6855 58.0273 67.2988 57.0273 67.2988Z" fill="black"/>
<path d="M12.1909 80.6753H12.3066L13.1328 82.5825C13.1826 82.6978 13.2378 82.7783 13.2983 82.8242C13.3472 82.8604 13.4141 82.8828 13.499 82.8916V83H12.6787V82.8916C12.8652 82.876 12.9585 82.8384 12.9585 82.7788C12.9585 82.7593 12.9453 82.7197 12.9189 82.6602L12.7036 82.1738H11.728L11.5332 82.625C11.5068 82.6855 11.4937 82.7319 11.4937 82.7642C11.4937 82.8394 11.5811 82.8818 11.7559 82.8916V83H11.0264V82.8916C11.1787 82.8701 11.2847 82.7891 11.3442 82.6484L12.1909 80.6753ZM12.2173 80.9873L11.7793 82.0244H12.6582L12.2173 80.9873ZM13.5283 80.7207H14.3838V80.8291C14.165 80.8447 14.0557 80.8853 14.0557 80.9507C14.0557 80.9849 14.0659 81.0254 14.0864 81.0723L14.7251 82.6499L15.2891 81.0811C15.3076 81.0293 15.3169 80.9902 15.3169 80.9639C15.3169 80.915 15.2861 80.8809 15.2246 80.8613C15.1836 80.8477 15.1162 80.8369 15.0225 80.8291V80.7207H15.7871V80.8291C15.625 80.8555 15.5122 80.9565 15.4487 81.1323L14.75 83.0454H14.6387L13.8433 81.0591C13.812 80.98 13.7695 80.9243 13.7158 80.8921C13.6631 80.8589 13.6006 80.8379 13.5283 80.8291V80.7207ZM17.9917 80.6753H18.1074L18.9336 82.5825C18.9834 82.6978 19.0386 82.7783 19.0991 82.8242C19.1479 82.8604 19.2148 82.8828 19.2998 82.8916V83H18.4795V82.8916C18.666 82.876 18.7593 82.8384 18.7593 82.7788C18.7593 82.7593 18.7461 82.7197 18.7197 82.6602L18.5044 82.1738H17.5288L17.334 82.625C17.3076 82.6855 17.2944 82.7319 17.2944 82.7642C17.2944 82.8394 17.3818 82.8818 17.5566 82.8916V83H16.8271V82.8916C16.9795 82.8701 17.0854 82.7891 17.145 82.6484L17.9917 80.6753ZM18.0181 80.9873L17.5801 82.0244H18.459L18.0181 80.9873ZM21.4502 81.4165H21.3389C21.2402 81.022 20.9883 80.8247 20.583 80.8247C20.3037 80.8247 20.0879 80.9414 19.9355 81.1748C19.8154 81.3604 19.7554 81.5923 19.7554 81.8706C19.7554 82.106 19.811 82.3086 19.9224 82.4785C20.0161 82.6211 20.1387 82.7261 20.29 82.7935C20.3916 82.8394 20.5 82.8623 20.6152 82.8623C21.0312 82.8623 21.3096 82.6411 21.4502 82.1987L21.5703 82.25C21.4883 82.5264 21.3726 82.7271 21.2231 82.8521C21.0591 82.9888 20.8452 83.0571 20.5815 83.0571C20.2583 83.0571 19.9956 82.9424 19.7935 82.7129C19.6001 82.4941 19.5034 82.2144 19.5034 81.8735C19.5034 81.5913 19.5703 81.3457 19.7041 81.1367C19.8232 80.9512 19.981 80.8184 20.1772 80.7383C20.3013 80.6875 20.4326 80.6621 20.5713 80.6621C20.7744 80.6621 20.9717 80.7158 21.1631 80.8232C21.209 80.8486 21.2446 80.8613 21.27 80.8613C21.3042 80.8613 21.3281 80.814 21.3418 80.7192H21.4502V81.4165ZM23.8818 81.4165H23.7705C23.6719 81.022 23.4199 80.8247 23.0146 80.8247C22.7354 80.8247 22.5195 80.9414 22.3672 81.1748C22.2471 81.3604 22.187 81.5923 22.187 81.8706C22.187 82.106 22.2427 82.3086 22.354 82.4785C22.4478 82.6211 22.5703 82.7261 22.7217 82.7935C22.8232 82.8394 22.9316 82.8623 23.0469 82.8623C23.4629 82.8623 23.7412 82.6411 23.8818 82.1987L24.002 82.25C23.9199 82.5264 23.8042 82.7271 23.6548 82.8521C23.4907 82.9888 23.2769 83.0571 23.0132 83.0571C22.6899 83.0571 22.4272 82.9424 22.2251 82.7129C22.0317 82.4941 21.9351 82.2144 21.9351 81.8735C21.9351 81.5913 22.002 81.3457 22.1357 81.1367C22.2549 80.9512 22.4126 80.8184 22.6089 80.7383C22.7329 80.6875 22.8643 80.6621 23.0029 80.6621C23.2061 80.6621 23.4033 80.7158 23.5947 80.8232C23.6406 80.8486 23.6763 80.8613 23.7017 80.8613C23.7358 80.8613 23.7598 80.814 23.7734 80.7192H23.8818V81.4165ZM25.4463 80.6621C25.792 80.6621 26.0654 80.8008 26.2666 81.0781C26.4258 81.2969 26.5054 81.5601 26.5054 81.8677C26.5054 82.1548 26.4409 82.3999 26.312 82.603C26.1187 82.9058 25.8291 83.0571 25.4434 83.0571C25.0859 83.0571 24.8101 82.9253 24.6157 82.6616C24.4595 82.4507 24.3813 82.1855 24.3813 81.8662C24.3813 81.5332 24.4727 81.2554 24.6553 81.0327C24.8564 80.7856 25.1201 80.6621 25.4463 80.6621ZM25.4404 80.8247C25.1738 80.8247 24.9663 80.9355 24.8179 81.1572C24.6948 81.3398 24.6333 81.5747 24.6333 81.8618C24.6333 82.0991 24.6777 82.3027 24.7666 82.4727C24.833 82.5996 24.9199 82.6992 25.0273 82.7715C25.1494 82.8535 25.2881 82.8945 25.4434 82.8945C25.6943 82.8945 25.8945 82.7939 26.0439 82.5928C26.1836 82.4062 26.2534 82.1621 26.2534 81.8604C26.2534 81.5498 26.1816 81.3013 26.0381 81.1147C25.8896 80.9214 25.6904 80.8247 25.4404 80.8247ZM26.7427 80.7207H27.5527V80.8291C27.4141 80.8418 27.3301 80.8618 27.3008 80.8892C27.2686 80.9185 27.2524 80.9771 27.2524 81.0649V82.064C27.2524 82.314 27.2988 82.4985 27.3916 82.6177C27.5234 82.7866 27.7163 82.8711 27.9702 82.8711C28.147 82.8711 28.2925 82.8252 28.4067 82.7334C28.4878 82.667 28.5479 82.5923 28.5869 82.5093C28.6436 82.3882 28.6719 82.2358 28.6719 82.0522V81.0649C28.6719 80.9761 28.6538 80.9175 28.6177 80.8892C28.5835 80.8628 28.5024 80.8428 28.3745 80.8291V80.7207H29.1377V80.8291C28.9971 80.8418 28.9111 80.8633 28.8799 80.8936C28.8516 80.9199 28.8374 80.9771 28.8374 81.0649V82.0522C28.8374 82.354 28.7676 82.5898 28.6279 82.7598C28.4648 82.958 28.2378 83.0571 27.9468 83.0571C27.6333 83.0571 27.3896 82.9492 27.2158 82.7334C27.1338 82.6318 27.0811 82.5059 27.0576 82.3555C27.0459 82.2764 27.04 82.1792 27.04 82.064V81.0649C27.04 80.9771 27.022 80.9194 26.9858 80.8921C26.9517 80.8657 26.8706 80.8447 26.7427 80.8291V80.7207ZM29.2271 80.7207H29.7588L31.1445 82.5679H31.1562V81.0649C31.1562 80.9761 31.1382 80.9175 31.1021 80.8892C31.063 80.8589 30.9819 80.8389 30.8589 80.8291V80.7207H31.6221V80.8291C31.4863 80.8389 31.4014 80.8589 31.3672 80.8892C31.3369 80.9146 31.3218 80.9731 31.3218 81.0649V83.0366H31.2046L29.7046 80.9932H29.6929V82.6558C29.6929 82.7495 29.7139 82.8105 29.7559 82.8389C29.791 82.8633 29.8687 82.8809 29.9888 82.8916V83H29.2271V82.8916C29.3638 82.8799 29.4482 82.8584 29.4805 82.8271C29.5117 82.7979 29.5273 82.7407 29.5273 82.6558V81.0649C29.5273 80.9585 29.5039 80.8931 29.457 80.8687C29.4199 80.8481 29.3433 80.835 29.2271 80.8291V80.7207ZM31.7891 80.7207H33.6787L33.7241 81.3799H33.6187C33.5933 81.1904 33.5366 81.0576 33.4487 80.9814C33.3628 80.9072 33.2324 80.8701 33.0576 80.8701H32.8452V82.6558C32.8452 82.7456 32.8643 82.8057 32.9023 82.8359C32.9326 82.8604 33.0127 82.8789 33.1426 82.8916V83H32.3252V82.8916C32.4609 82.8799 32.5449 82.8584 32.5771 82.8271C32.6074 82.7979 32.6226 82.7407 32.6226 82.6558V80.8701H32.4102C32.2275 80.8701 32.0938 80.9106 32.0088 80.9917C31.9258 81.0698 31.8726 81.1992 31.8491 81.3799H31.7437L31.7891 80.7207ZM34.9751 80.6753H35.0908L35.917 82.5825C35.9668 82.6978 36.022 82.7783 36.0825 82.8242C36.1313 82.8604 36.1982 82.8828 36.2832 82.8916V83H35.4629V82.8916C35.6494 82.876 35.7427 82.8384 35.7427 82.7788C35.7427 82.7593 35.7295 82.7197 35.7031 82.6602L35.4878 82.1738H34.5122L34.3174 82.625C34.291 82.6855 34.2778 82.7319 34.2778 82.7642C34.2778 82.8394 34.3652 82.8818 34.54 82.8916V83H33.8105V82.8916C33.9629 82.8701 34.0688 82.7891 34.1284 82.6484L34.9751 80.6753ZM35.0015 80.9873L34.5635 82.0244H35.4424L35.0015 80.9873ZM36.3667 80.7207H36.8984L38.2842 82.5679H38.2959V81.0649C38.2959 80.9761 38.2778 80.9175 38.2417 80.8892C38.2026 80.8589 38.1216 80.8389 37.9985 80.8291V80.7207H38.7617V80.8291C38.626 80.8389 38.541 80.8589 38.5068 80.8892C38.4766 80.9146 38.4614 80.9731 38.4614 81.0649V83.0366H38.3442L36.8442 80.9932H36.8325V82.6558C36.8325 82.7495 36.8535 82.8105 36.8955 82.8389C36.9307 82.8633 37.0083 82.8809 37.1284 82.8916V83H36.3667V82.8916C36.5034 82.8799 36.5879 82.8584 36.6201 82.8271C36.6514 82.7979 36.667 82.7407 36.667 82.6558V81.0649C36.667 80.9585 36.6436 80.8931 36.5967 80.8687C36.5596 80.8481 36.4829 80.835 36.3667 80.8291V80.7207ZM38.9287 80.7207H40.8184L40.8638 81.3799H40.7583C40.7329 81.1904 40.6763 81.0576 40.5884 80.9814C40.5024 80.9072 40.3721 80.8701 40.1973 80.8701H39.9849V82.6558C39.9849 82.7456 40.0039 82.8057 40.042 82.8359C40.0723 82.8604 40.1523 82.8789 40.2822 82.8916V83H39.4648V82.8916C39.6006 82.8799 39.6846 82.8584 39.7168 82.8271C39.7471 82.7979 39.7622 82.7407 39.7622 82.6558V80.8701H39.5498C39.3672 80.8701 39.2334 80.9106 39.1484 80.9917C39.0654 81.0698 39.0122 81.1992 38.9888 81.3799H38.8833L38.9287 80.7207ZM44.0557 81.4165H43.9443C43.8457 81.022 43.5938 80.8247 43.1885 80.8247C42.9092 80.8247 42.6934 80.9414 42.541 81.1748C42.4209 81.3604 42.3608 81.5923 42.3608 81.8706C42.3608 82.106 42.4165 82.3086 42.5278 82.4785C42.6216 82.6211 42.7441 82.7261 42.8955 82.7935C42.9971 82.8394 43.1055 82.8623 43.2207 82.8623C43.6367 82.8623 43.915 82.6411 44.0557 82.1987L44.1758 82.25C44.0938 82.5264 43.978 82.7271 43.8286 82.8521C43.6646 82.9888 43.4507 83.0571 43.187 83.0571C42.8638 83.0571 42.6011 82.9424 42.3989 82.7129C42.2056 82.4941 42.1089 82.2144 42.1089 81.8735C42.1089 81.5913 42.1758 81.3457 42.3096 81.1367C42.4287 80.9512 42.5864 80.8184 42.7827 80.7383C42.9067 80.6875 43.0381 80.6621 43.1768 80.6621C43.3799 80.6621 43.5771 80.7158 43.7686 80.8232C43.8145 80.8486 43.8501 80.8613 43.8755 80.8613C43.9097 80.8613 43.9336 80.814 43.9473 80.7192H44.0557V81.4165ZM45.6201 80.6621C45.9658 80.6621 46.2393 80.8008 46.4404 81.0781C46.5996 81.2969 46.6792 81.5601 46.6792 81.8677C46.6792 82.1548 46.6147 82.3999 46.4858 82.603C46.2925 82.9058 46.0029 83.0571 45.6172 83.0571C45.2598 83.0571 44.9839 82.9253 44.7896 82.6616C44.6333 82.4507 44.5552 82.1855 44.5552 81.8662C44.5552 81.5332 44.6465 81.2554 44.8291 81.0327C45.0303 80.7856 45.2939 80.6621 45.6201 80.6621ZM45.6143 80.8247C45.3477 80.8247 45.1401 80.9355 44.9917 81.1572C44.8687 81.3398 44.8071 81.5747 44.8071 81.8618C44.8071 82.0991 44.8516 82.3027 44.9404 82.4727C45.0068 82.5996 45.0938 82.6992 45.2012 82.7715C45.3232 82.8535 45.4619 82.8945 45.6172 82.8945C45.8682 82.8945 46.0684 82.7939 46.2178 82.5928C46.3574 82.4062 46.4272 82.1621 46.4272 81.8604C46.4272 81.5498 46.3555 81.3013 46.2119 81.1147C46.0635 80.9214 45.8643 80.8247 45.6143 80.8247ZM46.9399 80.7207H47.4717L48.8574 82.5679H48.8691V81.0649C48.8691 80.9761 48.8511 80.9175 48.8149 80.8892C48.7759 80.8589 48.6948 80.8389 48.5718 80.8291V80.7207H49.335V80.8291C49.1992 80.8389 49.1143 80.8589 49.0801 80.8892C49.0498 80.9146 49.0347 80.9731 49.0347 81.0649V83.0366H48.9175L47.4175 80.9932H47.4058V82.6558C47.4058 82.7495 47.4268 82.8105 47.4688 82.8389C47.5039 82.8633 47.5815 82.8809 47.7017 82.8916V83H46.9399V82.8916C47.0767 82.8799 47.1611 82.8584 47.1934 82.8271C47.2246 82.7979 47.2402 82.7407 47.2402 82.6558V81.0649C47.2402 80.9585 47.2168 80.8931 47.1699 80.8687C47.1328 80.8481 47.0562 80.835 46.9399 80.8291V80.7207ZM49.6309 82.1753H49.7334C49.7666 82.4175 49.8398 82.5913 49.9531 82.6968C50.0938 82.8286 50.2739 82.8945 50.4937 82.8945C50.6704 82.8945 50.813 82.8545 50.9214 82.7744C51.0269 82.6963 51.0796 82.5923 51.0796 82.4624C51.0796 82.2759 50.9209 82.1182 50.6035 81.9893L50.1978 81.8237C50.0132 81.7485 49.8804 81.6646 49.7993 81.5718C49.7134 81.4741 49.6704 81.355 49.6704 81.2144C49.6704 81.0405 49.7441 80.9014 49.8916 80.7969C50.0176 80.707 50.1797 80.6621 50.3779 80.6621C50.6016 80.6621 50.7827 80.708 50.9214 80.7998C50.9458 80.8164 50.9692 80.8247 50.9917 80.8247C51.0308 80.8247 51.0552 80.7827 51.0649 80.6987H51.1704V81.3828H51.0649C51.0317 81.208 50.9639 81.0752 50.8613 80.9844C50.7422 80.8779 50.5923 80.8247 50.4116 80.8247C50.2524 80.8247 50.123 80.8618 50.0234 80.936C49.9258 81.0093 49.877 81.1021 49.877 81.2144C49.877 81.313 49.9214 81.3955 50.0103 81.4619C50.0737 81.5098 50.1685 81.5586 50.2944 81.6084L50.687 81.7637C50.8931 81.8457 51.0459 81.9385 51.1455 82.042C51.2578 82.1592 51.314 82.2974 51.314 82.4565C51.314 82.6421 51.2432 82.7886 51.1016 82.896C50.9609 83.0034 50.7651 83.0571 50.5142 83.0571C50.2925 83.0571 50.0942 83.0049 49.9194 82.9004C49.8911 82.8848 49.8701 82.877 49.8564 82.877C49.7939 82.877 49.7529 82.9302 49.7334 83.0366H49.6309V82.1753ZM51.5366 80.7207H52.3467V80.8291C52.208 80.8418 52.124 80.8618 52.0947 80.8892C52.0625 80.9185 52.0464 80.9771 52.0464 81.0649V82.064C52.0464 82.314 52.0928 82.4985 52.1855 82.6177C52.3174 82.7866 52.5103 82.8711 52.7642 82.8711C52.9409 82.8711 53.0864 82.8252 53.2007 82.7334C53.2817 82.667 53.3418 82.5923 53.3809 82.5093C53.4375 82.3882 53.4658 82.2358 53.4658 82.0522V81.0649C53.4658 80.9761 53.4478 80.9175 53.4116 80.8892C53.3774 80.8628 53.2964 80.8428 53.1685 80.8291V80.7207H53.9316V80.8291C53.791 80.8418 53.7051 80.8633 53.6738 80.8936C53.6455 80.9199 53.6313 80.9771 53.6313 81.0649V82.0522C53.6313 82.354 53.5615 82.5898 53.4219 82.7598C53.2588 82.958 53.0317 83.0571 52.7407 83.0571C52.4272 83.0571 52.1836 82.9492 52.0098 82.7334C51.9277 82.6318 51.875 82.5059 51.8516 82.3555C51.8398 82.2764 51.834 82.1792 51.834 82.064V81.0649C51.834 80.9771 51.8159 80.9194 51.7798 80.8921C51.7456 80.8657 51.6646 80.8447 51.5366 80.8291V80.7207ZM54.0444 80.7207H54.916V80.8291C54.7666 80.8428 54.6729 80.8667 54.6348 80.9009C54.5967 80.9351 54.5776 81.002 54.5776 81.1016V82.5957C54.5776 82.7002 54.5996 82.769 54.6436 82.8022C54.6865 82.8345 54.7686 82.8506 54.8896 82.8506H55.0391C55.2451 82.8506 55.4004 82.7939 55.5049 82.6807C55.5879 82.5928 55.644 82.4492 55.6733 82.25H55.7773L55.7261 83H54.0444V82.8916C54.1626 82.8809 54.2476 82.854 54.2993 82.811C54.3433 82.7749 54.3652 82.7109 54.3652 82.6191V81.1016C54.3652 80.999 54.3442 80.9302 54.3022 80.895C54.2642 80.8638 54.1782 80.8418 54.0444 80.8291V80.7207ZM55.9531 80.7207H57.8428L57.8882 81.3799H57.7827C57.7573 81.1904 57.7007 81.0576 57.6128 80.9814C57.5269 80.9072 57.3965 80.8701 57.2217 80.8701H57.0093V82.6558C57.0093 82.7456 57.0283 82.8057 57.0664 82.8359C57.0967 82.8604 57.1768 82.8789 57.3066 82.8916V83H56.4893V82.8916C56.625 82.8799 56.709 82.8584 56.7412 82.8271C56.7715 82.7979 56.7866 82.7407 56.7866 82.6558V80.8701H56.5742C56.3916 80.8701 56.2578 80.9106 56.1729 80.9917C56.0898 81.0698 56.0366 81.1992 56.0132 81.3799H55.9077L55.9531 80.7207ZM58.0713 80.7207H58.9648V80.8291C58.8115 80.8428 58.7168 80.8672 58.6807 80.9023C58.6465 80.9365 58.6294 81.0029 58.6294 81.1016V82.6191C58.6294 82.7217 58.6514 82.79 58.6953 82.8242C58.7344 82.8555 58.8242 82.8779 58.9648 82.8916V83H58.0713V82.8916C58.2178 82.876 58.3096 82.8521 58.3467 82.8198C58.3867 82.7856 58.4067 82.7188 58.4067 82.6191V81.1016C58.4067 80.9814 58.3779 80.9067 58.3203 80.8774C58.2764 80.855 58.1934 80.8389 58.0713 80.8291V80.7207ZM59.1509 80.7207H59.6826L61.0684 82.5679H61.0801V81.0649C61.0801 80.9761 61.062 80.9175 61.0259 80.8892C60.9868 80.8589 60.9058 80.8389 60.7827 80.8291V80.7207H61.5459V80.8291C61.4102 80.8389 61.3252 80.8589 61.291 80.8892C61.2607 80.9146 61.2456 80.9731 61.2456 81.0649V83.0366H61.1284L59.6284 80.9932H59.6167V82.6558C59.6167 82.7495 59.6377 82.8105 59.6797 82.8389C59.7148 82.8633 59.7925 82.8809 59.9126 82.8916V83H59.1509V82.8916C59.2876 82.8799 59.3721 82.8584 59.4043 82.8271C59.4355 82.7979 59.4512 82.7407 59.4512 82.6558V81.0649C59.4512 80.9585 59.4277 80.8931 59.3809 80.8687C59.3438 80.8481 59.2671 80.835 59.1509 80.8291V80.7207ZM63.626 83.0571L63.5454 82.7686C63.3735 82.9609 63.1372 83.0571 62.8364 83.0571C62.4858 83.0571 62.2144 82.9224 62.022 82.6528C61.8716 82.4419 61.7964 82.1797 61.7964 81.8662C61.7964 81.5195 61.9019 81.2314 62.1128 81.002C62.3208 80.7754 62.5825 80.6621 62.8979 80.6621C63.1138 80.6621 63.3105 80.7163 63.4883 80.8247C63.5215 80.8442 63.5469 80.854 63.5645 80.854C63.6055 80.854 63.6318 80.8091 63.6436 80.7192H63.749V81.3682H63.6436C63.5527 81.0059 63.2993 80.8247 62.8833 80.8247C62.6079 80.8247 62.394 80.9346 62.2417 81.1543C62.1128 81.3379 62.0483 81.5732 62.0483 81.8604C62.0483 82.1514 62.1177 82.3921 62.2563 82.5825C62.4067 82.7905 62.6025 82.8945 62.8438 82.8945C63.0527 82.8945 63.2241 82.8389 63.3579 82.7275C63.4888 82.6191 63.5542 82.5132 63.5542 82.4097V82.2236C63.5542 82.1426 63.5317 82.0898 63.4868 82.0654C63.4214 82.0312 63.3198 82.0059 63.1821 81.9893V81.8809H64.0669V81.9893C63.9419 82.0049 63.855 82.0342 63.8062 82.0771C63.7759 82.1045 63.7607 82.1602 63.7607 82.2441V83.0571H63.626Z" fill="black"/>
</svg>
