<?xml version="1.0" encoding="utf-8"?>
<!-- Generator: Adobe Illustrator 25.4.1, SVG Export Plug-In . SVG Version: 6.00 Build 0)  -->
<svg version="1.1" id="Capa_1" xmlns="http://www.w3.org/2000/svg" xmlns:xlink="http://www.w3.org/1999/xlink" x="0px" y="0px"
	 viewBox="0 0 213 214" style="enable-background:new 0 0 213 214;" xml:space="preserve">
<style type="text/css">
	.st0{fill:#0F8F30;}
	.st1{fill:#E0040B;}
	.st2{fill:#F45815;}
	.st3{fill:#671085;}
	.st4{fill:#F7B53B;}
</style>
<g>
	<path class="st0" d="M102.3,72c0.7,0,3.5-1.3,6.3-3c19-10.9,26.7-39.2,16.2-59.9c-1.8-3.6-3.8-6.7-4.5-6.9
		c-0.6-0.2-3.1,1.6-5.4,3.9c-4.7,4.7-10.7,16.9-13.4,26.9C98.1,46.1,98.6,72,102.3,72z"/>
	<path class="st1" d="M61.5,75.2C73.5,83.7,87.8,90,95.2,90c2.8,0,2.8-0.1,2.8-5.9c0-22.9-20.5-45.2-46-49.7
		c-8-1.4-9.2-1.5-15.5-0.5c-3.2,0.5-4.1,1.1-4.3,2.9C31,45.3,44.7,63.4,61.5,75.2z"/>
	<path class="st2" d="M105.6,85.8c-0.3,2.3-0.2,4.3,0.2,4.5c0.8,0.5,4.5-0.6,6.4-1.5c0.6-0.2,1.7-0.6,3.6-1.5
		c3.7-1.3,11.5-6.6,15.7-11c2.2-2.3,5-6.1,6.2-8.3c2.2-4,2.2-4.3,0.5-5.5c-1.9-1.5-5-1.6-10.5-0.3C116.6,64.7,106.9,75.1,105.6,85.8
		z"/>
	<path class="st3" d="M206.5,125.2c-0.2-0.2-1.9,0.8-3.8,2.2c-1.9,1.4-3.7,2.6-4,2.6c-1.2,0-0.7-6.4,1.3-16
		c2.9-14.1,2.6-24.1-0.9-23.9c-0.9,0-3,0.7-4.8,1.5c-4.8,2.1-5.7,4.3-11.8,30.9c-3.1,13.2-9.5,23.5-20,32.3
		c-6.3,5.3-16.3,11.4-18,11c-0.8-0.2,0.4-4.3,3.7-12.7c5.8-14.3,6.4-21.1,2.7-28.8c-2.8-5.8-10.9-14.6-17.8-19.2
		C128,101.6,115.8,95,114.5,95c-1.2,0-0.4,7.3,1.1,10.3c0.9,1.8,6.1,7.5,11.5,12.7l9.9,9.6v4.9c0,6.3-2.2,10.1-10.6,18
		c-11.4,10.9-24.6,17.4-35.5,17.5c-6,0-7-0.3-9.7-2.8c-3.8-3.5-4.9-8.9-3.3-15.2c0.7-2.5,4-10.4,7.3-17.5
		c5.4-11.4,6.2-13.9,6.6-20.3c0.5-8.9-0.6-10.5-3.9-5.9c-1.3,1.9-8.1,9.4-15,16.8c-35.6,37.8-51.2,58.4-56.7,74.9l-3.2,9.3l8.3-0.7
		c27.4-2.3,36.8-2.8,70.7-3.5c35.5-0.8,38-1,47.1-3.4c11.3-2.9,22.3-7.8,30.5-13.5c12.1-8.3,24.5-23.5,30.9-37.8
		C203,142.8,207.3,126,206.5,125.2z"/>
</g>
<circle class="st4" cx="87.8" cy="37.1" r="8.7"/>
</svg>
